<?xml version="1.0" encoding="UTF-8" standalone="no"?>
<svg width="46px" height="46px" viewBox="0 0 46 46" version="1.1" xmlns="http://www.w3.org/2000/svg" xmlns:xlink="http://www.w3.org/1999/xlink">
    <title>Google Icon</title>
    <defs>
        <filter x="-50%" y="-50%" width="200%" height="200%" filterUnits="objectBoundingBox" id="filter-1">
            <feOffset dx="0" dy="1" in="SourceAlpha" result="shadowOffsetOuter1"></feOffset>
            <feGaussianBlur stdDeviation="0.5" in="shadowOffsetOuter1" result="shadowBlurOuter1"></feGaussianBlur>
            <feColorMatrix values="0 0 0 0 0   0 0 0 0 0   0 0 0 0 0  0 0 0 0.168 0" in="shadowBlurOuter1" result="shadowMatrixOuter1"></feColorMatrix>
            <feOffset dx="0" dy="0" in="SourceAlpha" result="shadowOffsetOuter2"></feOffset>
            <feGaussianBlur stdDeviation="0.5" in="shadowOffsetOuter2" result="shadowBlurOuter2"></feGaussianBlur>
            <feColorMatrix values="0 0 0 0 0   0 0 0 0 0   0 0 0 0 0  0 0 0 0.084 0" in="shadowBlurOuter2" result="shadowMatrixOuter2"></feColorMatrix>
            <feMerge>
                <feMergeNode in="shadowMatrixOuter1"></feMergeNode>
                <feMergeNode in="shadowMatrixOuter2"></feMergeNode>
                <feMergeNode in="SourceGraphic"></feMergeNode>
            </feMerge>
        </filter>
    </defs>
    <g id="Google-Button" stroke="none" stroke-width="1" fill="none" fill-rule="evenodd">
        <g id="btn_google_light_normal" transform="translate(-1.000000, -1.000000)">
            <g id="button" transform="translate(4.000000, 4.000000)" filter="url(#filter-1)">
                <g id="Google-Icon">
                    <path d="M20.64,12.2045455 C20.64,11.5181818 20.5827273,10.8636364 20.4763636,10.2272727 L10.8,10.2272727 L10.8,14.7681818 L16.4072727,14.7681818 C16.1454545,16.2681818 15.3436364,17.5418182 14.1109091,18.3963636 L14.1109091,21.3954545 L17.4109091,21.3954545 C19.3454545,19.3454545 20.64,16.0727273 20.64,12.2045455 L20.64,12.2045455 Z" id="Shape" fill="#4285F4"></path>
                    <path d="M10.8,24 C13.6363636,24 16.0181818,22.9454545 17.4109091,21.3954545 L14.1109091,18.3963636 C13.1454545,19.0372727 12.0181818,19.4181818 10.8,19.4181818 C8.14909091,19.4181818 5.92363636,17.5627273 5.32363636,15.0636364 L1.92,15.0636364 L1.92,18.1454545 C3.30545455,21.6 6.76363636,24 10.8,24 L10.8,24 Z" id="Shape" fill="#34A853"></path>
                    <path d="M5.32363636,15.0636364 C5.20909091,14.4927273 5.14363636,13.9045455 5.14363636,13.2954545 C5.14363636,12.6863636 5.22,12.0981818 5.32363636,11.5272727 L5.32363636,8.44545455 L1.92,8.44545455 C1.41818182,9.96 1.12909091,11.5890909 1.12909091,13.2954545 C1.12909091,15.0018182 1.41818182,16.6309091 1.92,18.1454545 L5.32363636,15.0636364 L5.32363636,15.0636364 Z" id="Shape" fill="#FBBC05"></path>
                    <path d="M10.8,7.17272727 C12.2063636,7.17272727 13.4727273,7.66363636 14.4654545,8.59090909 L17.3963636,5.66727273 C15.9981818,4.38 13.6363636,3.60272727 10.8,3.60272727 C6.76363636,3.60272727 3.30545455,6.00272727 1.92,9.45545455 L5.32363636,12.5372727 C5.90909091,10.0381818 8.14909091,7.17272727 10.8,7.17272727 L10.8,7.17272727 Z" id="Shape" fill="#EA4335"></path>
                </g>
            </g>
        </g>
    </g>
</svg> 